<?xml version="1.0" standalone="no"?><svg xmlns="http://www.w3.org/2000/svg" viewBox="0 0 1440 300"><path fill="#ffffff" fill-opacity="1" d="M0,64L21.8,96C43.6,128,87,192,131,218.7C174.5,245,218,235,262,197.3C305.5,160,349,96,393,90.7C436.4,85,480,139,524,144C567.3,149,611,107,655,101.3C698.2,96,742,128,785,128C829.1,128,873,96,916,80C960,64,1004,64,1047,69.3C1090.9,75,1135,85,1178,101.3C1221.8,117,1265,139,1309,128C1352.7,117,1396,75,1418,53.3L1440,32L1440,320L1418.2,320C1396.4,320,1353,320,1309,320C1265.5,320,1222,320,1178,320C1134.5,320,1091,320,1047,320C1003.6,320,960,320,916,320C872.7,320,829,320,785,320C741.8,320,698,320,655,320C610.9,320,567,320,524,320C480,320,436,320,393,320C349.1,320,305,320,262,320C218.2,320,175,320,131,320C87.3,320,44,320,22,320L0,320Z"></path></svg>